<svg xmlns="http://www.w3.org/2000/svg" width="1333.333" height="1333.333" version="1.0" viewBox="0 0 1000 1000"><path d="M37 1.1C25.3 3.4 11.6 13.6 5.8 24.6-.4 36.1 0 21.4 0 251.7V462h98l.4-2.3c.2-1.2 1.1-8.1 2.1-15.2.9-7.2 3.2-20.3 5.1-29.3C133.1 286.8 222.9 178.7 344.1 128c36.5-15.4 76.6-25.4 117-29.5 17.6-1.7 57.8-2 74.9-.5 81.7 7.4 160.2 40.3 224.1 93.8 40.5 33.9 77 80.4 101.3 128.9 18.8 37.6 32.9 83.9 38.1 125.3 1 7.4 1.9 14.1 2.1 14.7.3 1 11 1.3 49.4 1.3h49V251.7c0-230.3.4-215.6-5.8-227.1-6-11.3-19.5-21.3-32.1-23.6C955.3-.3 43.5-.2 37 1.1z"/><path d="M478 107.6c-73.2 5-138.5 27-196.9 66.4-37.6 25.3-68.2 54.4-95.1 90.1-39.5 52.7-65.6 115-75 179.4-2.9 20.6-3.9 18.5 8.4 18.5h10.5l.6-5.8c9-78.7 45.6-155.9 101.3-213.4 35.5-36.6 72-62.4 116.5-82.3 79.2-35.4 170.3-42.1 252.8-18.5 59.8 17.1 112.4 47.6 157.8 91.5 58.3 56.4 97.2 131.9 108.5 210.5 1 6.3 1.9 13 2.2 14.7l.5 3.3H891l-.6-5.8c-2.3-21.9-9.1-54-16.4-76.7-7.4-23.1-22.2-56.1-34.6-77.2-29.8-51-71.1-95-119.9-127.9-15.8-10.7-27.7-17.6-46.2-26.8-19.5-9.7-28.2-13.3-50-20.5-40-13.3-73.5-19-116.3-19.5-12.9-.2-26-.2-29 0z"/><path d="M329.9 296.7c-.7 5.9-1.3 11-1.3 11.2-.1.2 5.8 1.4 12.9 2.6 18.8 3.2 30.4 6.5 41.3 11.8l6.2 3V462l27.3-.2 27.2-.3.3-72.8c.1-40 .5-72.7 1-72.7.4 0 5-.7 10.2-1.6 13.8-2.2 41.6-2.9 53.6-1.4 20.6 2.5 35.7 9.2 47.4 21 14.4 14.4 21 33.5 21 60.4-.1 19.2-3.9 34-12.2 46.7-4.5 7-13.2 16-18.1 18.6-3.1 1.8-2.3 1.8 30.8 2.1l34 .3 3.2-3.7c4.6-5.2 11.9-20.5 14.3-29.9 7.8-30.6 3.9-66.8-9.5-89.7-4.8-8.2-14.8-19.4-22.7-25.6-11.6-8.9-32.9-18-50.6-21.7-22.6-4.6-27.2-4.8-123.3-5.2l-91.7-.4-1.3 10.8zM455.9 491.2c-4.5 4.5-6.2 9.2-6.1 16.9 0 7.4 1.6 11.5 6.5 16.6 4.1 4.3 5 3.3 2.4-2.5-1.7-3.8-2.2-6.6-2.2-14.2s.5-10.4 2.2-14.2c1.2-2.6 1.8-5 1.3-5.3-.4-.3-2.3.9-4.1 2.7zM539.7 488.6c-.3.3.4 2.7 1.6 5.2 3.1 6.7 3.1 21.7 0 28.4-1.2 2.6-1.8 5-1.3 5.3 1.3.8 7.1-5.5 8.8-9.5 2.3-5.4 1.9-15.9-.7-21.4-2.2-4.3-7.2-9.2-8.4-8zM508.5 492.9c-2.5 1.1-5.1 4-5.9 6.7-1.3 4.2 1 7.2 8.2 10.8 7.3 3.7 8.8 5.5 7.2 8.7-2.2 4.1-9.4 3.2-12.6-1.6-2-3-3.4-3.2-3.4-.5 0 3.8 9.2 7.5 15.7 6.4 6.2-1.1 9.9-7.4 7.2-12.2-.8-1.4-4.3-4.1-7.9-6.1-5.7-3.2-6.5-4.1-6.5-6.6 0-2.3.6-3.2 2.7-3.9 3.1-1.1 7.7 1.3 8.5 4.5.8 2.8 2.3 2.3 2.3-.6 0-4.3-9.9-7.9-15.5-5.6zM480.3 494.8c2.2 2.4 2.5 22.8.3 25.7-1.6 2.2-4.6 1.4-5.3-1.5-.7-2.5-2.3-2.6-2.3-.1 0 2.8 2.5 4.3 7.1 4.5 6.7.1 7.9-2.2 7.9-16 0-6.4.4-11.5 1-11.9 2.4-1.5.6-2.5-4.7-2.5-5.4 0-5.5.1-4 1.8zM0 762.8c0 214.3-.4 201.1 5.8 212.6 6 11.3 19.5 21.3 32.1 23.6 7.4 1.4 916.8 1.4 924.2 0 12.6-2.3 26.1-12.3 32.1-23.6 6.2-11.5 5.8 1.7 5.8-212.6V567H898l-.5 2.2c-.3 1.3-1.2 5.9-2.1 10.3-19.9 101.3-81.6 194.4-167.2 252.6-59.1 40.2-121.4 62.8-192.2 69.5-22.9 2.2-68.5 1.4-89-1.5-21.1-3-29.5-4.7-48.5-9.6-84-21.8-159.6-71.1-214.6-140-38.7-48.6-66.8-108.7-78.9-168.5-1.2-5.8-2.3-11.5-2.6-12.8l-.4-2.2H0v195.8z"/><path d="M113 567.7c0 2.1 3.3 17.6 6 28.5 20.8 82.4 68.4 156.3 135.5 210.3 83.3 67 191.1 97.1 297.5 82.9 85.8-11.4 165.2-51.1 227-113.3 52.8-53.2 90.5-123 105.4-195.4 1.4-6.8 2.6-12.7 2.6-13.1 0-.3-4.7-.6-10.5-.6-10 0-10.5.1-11 2.2-4.3 19.5-6 26.1-8.8 35.8-17.5 59.2-49.2 112.5-93.7 157.1-8.5 8.6-20.2 19.5-25.9 24.2C645.7 862 523.8 889.6 409 860.5c-51.5-13-99.5-37-141.8-70.7-16.4-13.2-48.3-45.1-59.6-59.8-36.9-47.9-61.1-100.4-72.6-157.3l-1.1-5.7h-10.5c-5.7 0-10.4.3-10.4.7z"/><path d="M389 614v47l-4.7 2.4c-11.1 5.6-40.4 13.6-49.7 13.6-1.4 0-2.6.3-2.6.7 0 .5-.7 5.3-1.5 10.8-.8 5.5-1.5 10.6-1.5 11.2 0 1 17.8 1.3 85.9 1.3h85.9l1.1-8.3c.6-4.5 1.4-9.9 1.7-12 .5-3.4.4-3.7-1.9-3.7-1.3 0-8-.9-14.8-2.1-13.9-2.3-28.5-6.7-37.1-11L444 661v-94h-55v47zM538 567.7c.1.5 11.7 30.5 25.8 66.8l25.8 66h93.9l1.7-11.4c1-6.3 1.6-11.6 1.3-11.9-.2-.2-4.4-1-9.2-1.8-16.4-2.4-39.7-10.8-42.4-15.2-.6-.9-10.2-22.2-21.4-47.2l-20.3-45.5-27.6-.3c-15.2-.1-27.6.1-27.6.5z"/></svg>